<?xml version="1.0" encoding="UTF-8"?>
<svg version="1.1" xmlns="http://www.w3.org/2000/svg" width="221" height="221">
<path d="M0 0 C72.93 0 145.86 0 221 0 C221 72.93 221 145.86 221 221 C148.07 221 75.14 221 0 221 C0 148.07 0 75.14 0 0 Z " fill="#1A1314" transform="translate(0,0)"/>
<path d="M0 0 C18.65370872 14.95358866 32.64203985 35.27093939 35.43457031 59.48046875 C37.53358975 83.80756584 32.66014946 108.10164393 16.76171875 127.2734375 C1.34719974 144.86839928 -18.6842735 157.55770106 -42.375 159.6875 C-68.28943033 161.14133292 -91.33926802 154.78585467 -111.16235352 137.74414062 C-127.14968585 123.39213811 -139.16656406 102.20258858 -140.51586914 80.41259766 C-140.99336349 67.85892421 -140.31319798 56.63206749 -136.375 44.6875 C-136.03597656 43.59566406 -135.69695312 42.50382812 -135.34765625 41.37890625 C-127.43389159 18.36984673 -111.03194842 2.17591405 -89.56201172 -8.52856445 C-60.6065604 -22.33687887 -25.87568717 -18.60648639 0 0 Z " fill="#FBB5D1" transform="translate(165.375,38.3125)"/>
<path d="M0 0 C0.75603516 0.18191895 1.51207031 0.36383789 2.29101562 0.55126953 C11.92948113 2.98700641 28.92193539 7.55214847 35 16 C35.39309578 19.09562931 35.62338668 21.04336605 35 24 C32.9375 26.5625 32.9375 26.5625 30 28 C25.08918755 27.6467458 21.42337907 26.47341798 17.0625 24.25 C-10.59484943 11.09935609 -45.56259553 8.48840584 -75.13671875 16.22265625 C-79.71578525 17.14402555 -83.75806315 17.22944924 -87.9375 14.9375 C-89.65273412 11.80972014 -89.83194701 8.41294798 -89 5 C-85.7555947 0.34796912 -81.43528374 -0.17716308 -76.1875 -1.1875 C-75.40568359 -1.35185547 -74.62386719 -1.51621094 -73.81835938 -1.68554688 C-50.15545371 -6.56836868 -23.44726293 -5.65727974 0 0 Z " fill="#1C1314" transform="translate(142,73)"/>
<path d="M0 0 C2 3 2 3 1.8125 6.5625 C1 10 1 10 -2 12 C-7.30774439 11.72502047 -11.46192808 10.06891998 -16.125 7.6875 C-35.90278564 -1.93711539 -57.47985267 -4.42076879 -79.1875 -2.125 C-80.32844116 -2.00741333 -80.32844116 -2.00741333 -81.49243164 -1.88745117 C-86.17471383 -1.35471196 -90.47358707 -0.36297192 -95 1 C-100.12959381 1.49323017 -100.12959381 1.49323017 -102.875 -0.0625 C-104.68953275 -3.18752863 -104.49493962 -5.47355518 -104 -9 C-100.23410303 -12.85844264 -96.79263499 -13.7763083 -91.5625 -14.6875 C-90.28503906 -14.91824219 -89.00757812 -15.14898437 -87.69140625 -15.38671875 C-86.47324219 -15.58910156 -85.25507812 -15.79148437 -84 -16 C-83.04947754 -16.17345947 -82.09895508 -16.34691895 -81.11962891 -16.52563477 C-53.37102274 -20.74503857 -23.73779012 -14.77386938 0 0 Z " fill="#1D1415" transform="translate(163,116)"/>
<path d="M0 0 C2 3 2 3 1.6875 6.125 C1 9 1 9 0 10 C-4.73076655 10.4084115 -7.46119557 9.55448816 -11.5625 7.25 C-31.89079169 -3.33869248 -56.70136227 -4.36781878 -78.86572266 0.55834961 C-82.5580744 1.32241553 -85.60397721 1.81059388 -88.9375 -0.125 C-90 -2 -90 -2 -89.875 -5.0625 C-89 -8 -89 -8 -86 -10 C-58.20585441 -18.1990849 -24.92296811 -14.4929182 0 0 Z " fill="#1E1316" transform="translate(152,141)"/>
<path d="M0 0 C-7.92273021 0.88912403 -16.03654027 1.69196484 -24 1 C-24.66 0.34 -25.32 -0.32 -26 -1 C-4.11499365 -2.7433291 -4.11499365 -2.7433291 0 0 Z " fill="#E5B3C7" transform="translate(107,140)"/>
<path d="M0 0 C0.33 1.32 0.66 2.64 1 4 C-0.07543783 4.98783194 -1.16073217 5.96493943 -2.25 6.9375 C-3.15492187 7.75541016 -3.15492187 7.75541016 -4.078125 8.58984375 C-6.08467305 10.06212799 -7.57002449 10.57529189 -10 11 C-6.79239749 7.19364503 -3.59253891 3.45436433 0 0 Z " fill="#EEB7CD" transform="translate(56,42)"/>
<path d="M0 0 C-1.43344 0.53190541 -2.87195367 1.05015258 -4.3125 1.5625 C-5.51326172 1.99755859 -5.51326172 1.99755859 -6.73828125 2.44140625 C-9 3 -9 3 -12 2 C-11.67 1.34 -11.34 0.68 -11 0 C-3.82105263 -1.27368421 -3.82105263 -1.27368421 0 0 Z " fill="#F1BDD1" transform="translate(73,101)"/>
<path d="M0 0 C0 0.66 0 1.32 0 2 C-1.65 2.66 -3.3 3.32 -5 4 C-5 5.65 -5 7.3 -5 9 C-5.33 9 -5.66 9 -6 9 C-6.36521739 3.52173913 -6.36521739 3.52173913 -4.6875 1.125 C-3 0 -3 0 0 0 Z " fill="#1A080E" transform="translate(65,104)"/>
</svg>
